<?xml version="1.0" standalone="no"?>
<!DOCTYPE svg PUBLIC "-//W3C//DTD SVG 20010904//EN"
 "http://www.w3.org/TR/2001/REC-SVG-20010904/DTD/svg10.dtd">
<svg version="1.0" xmlns="http://www.w3.org/2000/svg"
 width="512.000000pt" height="512.000000pt" viewBox="0 0 512.000000 512.000000"
 preserveAspectRatio="xMidYMid meet">

<g transform="translate(0.000000,512.000000) scale(0.100000,-0.100000)"
fill=" #fc247c" stroke="none">
<path d="M2524 5110 c-12 -4 -31 -21 -43 -36 -20 -26 -21 -36 -21 -276 0 -259
3 -277 44 -310 48 -39 136 -8 151 54 3 13 5 135 3 272 l-3 248 -33 29 c-33 29
-60 35 -98 19z"/>
<path d="M1650 4629 c-38 -15 -60 -49 -60 -94 0 -37 7 -46 138 -177 132 -132
140 -138 179 -138 68 0 115 66 91 129 -13 36 -236 260 -275 277 -37 16 -39 16
-73 3z"/>
<path d="M3395 4626 c-38 -18 -261 -243 -273 -277 -24 -63 23 -129 91 -129 39
0 47 6 179 138 128 128 138 140 138 175 0 48 -23 82 -62 96 -38 13 -36 13 -73
-3z"/>
<path d="M2026 3959 c-296 -39 -538 -269 -600 -571 -20 -95 -20 -163 -1 -252
8 -38 13 -72 11 -75 -3 -4 -195 -98 -428 -211 l-423 -204 -278 -276 c-153
-151 -285 -287 -293 -302 -18 -34 -18 -62 0 -96 11 -21 73 -57 270 -157 l256
-130 0 -338 c0 -299 2 -342 17 -367 13 -23 84 -61 351 -191 328 -159 335 -161
372 -150 21 6 45 22 54 36 22 33 20 87 -3 116 -11 15 -134 80 -305 163 l-286
139 0 244 c0 134 3 243 7 243 3 0 278 -137 609 -305 506 -256 610 -305 645
-305 41 0 46 4 251 207 l208 207 0 -561 0 -562 -102 48 c-57 27 -148 71 -203
98 -194 97 -238 113 -277 102 -64 -17 -90 -98 -49 -151 23 -29 695 -358 731
-358 13 0 465 214 1005 476 815 395 984 480 998 504 15 25 17 68 17 367 l0
338 256 130 c197 100 259 136 270 157 18 34 18 62 0 96 -8 15 -140 151 -293
302 l-278 276 -423 204 c-233 113 -425 207 -428 211 -2 3 3 37 11 75 19 89 19
157 -1 252 -51 249 -229 457 -461 537 -212 74 -442 42 -630 -87 l-43 -29 -45
31 c-141 97 -322 141 -489 119z m249 -220 c61 -19 116 -53 200 -124 37 -31 56
-40 85 -40 29 0 48 9 85 40 133 112 216 147 355 148 192 1 364 -107 452 -284
125 -253 50 -452 -303 -794 -68 -66 -178 -163 -244 -216 -134 -107 -331 -249
-345 -249 -14 0 -211 142 -345 249 -66 53 -178 152 -249 221 -348 338 -423
537 -298 789 114 230 362 336 607 260z m-699 -911 c163 -229 436 -474 847
-762 37 -26 83 -54 102 -62 33 -13 39 -13 78 4 23 11 109 68 192 127 312 224
584 471 720 653 38 51 74 91 79 88 49 -19 646 -311 646 -316 0 -3 -90 -49
-200 -103 -187 -90 -202 -99 -216 -133 -18 -43 -5 -95 29 -119 46 -32 84 -20
348 109 l254 124 197 -196 197 -196 -851 -429 -851 -429 -203 203 c-112 112
-204 206 -204 209 0 3 121 65 269 137 237 115 271 135 286 163 14 28 15 40 6
71 -6 21 -21 45 -34 54 -45 32 -79 20 -399 -134 l-308 -150 -840 407 c-462
224 -840 409 -840 412 0 6 637 318 652 319 3 1 23 -23 44 -51z m157 -908 c356
-173 647 -316 647 -319 0 -4 -92 -98 -204 -210 l-203 -203 -851 429 -851 429
196 196 196 196 211 -102 c116 -57 502 -244 859 -416z m2647 -584 l0 -243
-832 -403 c-458 -222 -845 -409 -860 -417 l-28 -14 0 563 0 562 208 -207 c205
-203 210 -207 251 -207 35 0 139 49 644 305 331 167 605 305 610 305 4 0 7
-110 7 -244z"/>
<path d="M3489 2181 c-51 -51 -37 -130 28 -157 99 -42 180 80 104 157 -22 21
-39 29 -66 29 -27 0 -44 -8 -66 -29z"/>
<path d="M1534 671 c-32 -14 -64 -60 -64 -93 0 -21 11 -41 34 -64 44 -44 83
-45 128 -5 27 24 33 36 33 70 0 67 -71 117 -131 92z"/>
</g>
</svg>
