<?xml version="1.0" standalone="no"?>
<!DOCTYPE svg PUBLIC "-//W3C//DTD SVG 20010904//EN"
 "http://www.w3.org/TR/2001/REC-SVG-20010904/DTD/svg10.dtd">
<svg version="1.0" xmlns="http://www.w3.org/2000/svg"
 width="121.000000pt" height="96.000000pt" viewBox="0 0 121.000000 96.000000"
 preserveAspectRatio="xMidYMid meet">

<g transform="translate(0.000000,96.000000) scale(0.100000,-0.100000)"
fill=" #fc247c" stroke="none">
<path d="M573 935 c-17 -7 -33 -20 -36 -29 -4 -9 -17 -16 -30 -16 -47 0 -57
-26 -57 -148 l0 -112 -29 0 c-20 0 -36 -9 -51 -27 -20 -25 -21 -38 -18 -124
l3 -96 58 -86 57 -87 0 -95 0 -95 30 0 30 0 0 104 0 104 -60 92 -61 92 3 76
c2 61 6 77 18 77 11 0 16 -15 18 -64 3 -69 23 -111 53 -111 25 0 36 27 21 51
-15 24 -17 389 -2 389 5 0 11 -55 12 -132 l3 -133 25 0 25 0 3 158 c2 120 6
157 15 154 8 -2 13 -45 15 -146 2 -114 5 -143 17 -148 36 -13 45 15 45 138 0
73 4 119 10 119 6 0 10 -53 10 -137 0 -76 4 -144 9 -151 5 -8 17 -12 27 -10
17 3 19 14 22 91 1 48 7 87 12 87 6 0 10 -79 10 -201 0 -197 0 -201 -25 -244
-24 -40 -25 -51 -23 -151 3 -109 3 -109 28 -109 25 0 25 1 30 105 4 83 10 114
28 147 21 40 22 53 22 258 0 216 0 216 -25 240 -13 14 -31 25 -40 25 -11 0
-15 10 -15 35 0 41 -29 75 -63 75 -13 0 -32 9 -41 19 -24 26 -48 31 -83 16z"/>
<path d="M250 750 c-6 -12 -21 -20 -36 -20 -33 0 -44 -32 -44 -131 0 -77 -1
-79 -24 -79 -39 0 -48 -22 -45 -107 4 -73 7 -82 47 -138 36 -53 42 -68 42
-112 0 -29 5 -55 10 -58 6 -4 10 17 10 55 0 56 -4 66 -45 127 -45 65 -46 68
-43 137 3 65 5 71 26 74 20 3 22 0 22 -46 0 -36 6 -56 21 -73 17 -20 19 -21
12 -4 -4 11 -8 90 -8 175 0 153 0 155 23 158 22 3 22 2 22 -102 0 -154 19
-144 22 11 3 124 4 128 26 131 22 3 22 2 22 -112 0 -146 18 -166 22 -24 3 95
4 103 23 103 16 0 21 -8 23 -38 4 -43 22 -41 22 3 0 34 -26 63 -50 57 -9 -2
-22 4 -29 14 -15 25 -57 24 -71 -1z"/>
<path d="M888 745 c-6 -13 -15 -22 -19 -19 -5 3 -9 1 -9 -5 0 -5 5 -13 10 -16
6 -3 10 -50 10 -105 0 -149 19 -135 22 17 3 120 4 128 23 128 19 0 20 -8 23
-117 1 -65 7 -118 12 -118 5 0 11 46 12 103 3 94 4 102 23 102 19 0 20 -8 23
-117 3 -130 19 -160 24 -45 2 56 6 72 18 72 13 0 15 -27 18 -172 2 -157 1
-176 -18 -210 -21 -40 -29 -143 -10 -143 6 0 10 23 10 50 0 31 8 66 20 90 18
35 20 59 20 214 0 166 -1 176 -20 186 -11 6 -25 8 -30 5 -6 -4 -10 8 -10 29 0
39 -25 70 -48 61 -8 -3 -21 3 -29 15 -20 28 -61 26 -75 -5z"/>
<path d="M406 224 c-10 -26 -7 -124 4 -124 6 0 10 24 10 54 0 30 3 61 6 70 3
9 2 16 -4 16 -5 0 -13 -7 -16 -16z"/>
<path d="M825 223 c4 -10 10 -42 13 -70 5 -57 22 -63 22 -9 0 41 -18 96 -32
96 -6 0 -7 -8 -3 -17z"/>
</g>
</svg>
