<?xml version="1.0" standalone="no"?>
<!DOCTYPE svg PUBLIC "-//W3C//DTD SVG 20010904//EN"
 "http://www.w3.org/TR/2001/REC-SVG-20010904/DTD/svg10.dtd">
<svg version="1.0" xmlns="http://www.w3.org/2000/svg"
 width="512.000000pt" height="512.000000pt" viewBox="0 0 512.000000 512.000000"
 preserveAspectRatio="xMidYMid meet">

<g transform="translate(0.000000,512.000000) scale(0.100000,-0.100000)"
fill="#fc247c" stroke="none">
<path d="M2370 5114 c-19 -2 -78 -9 -130 -15 -224 -25 -515 -107 -730 -204
-143 -64 -176 -104 -134 -163 32 -46 58 -46 155 -2 l90 39 70 -46 69 -46 0
-204 c0 -271 9 -291 157 -343 72 -26 78 -30 81 -58 3 -29 -7 -38 -245 -209
l-248 -178 -182 -5 c-198 -5 -209 -8 -257 -74 -19 -25 -21 -44 -24 -214 -3
-225 -1 -230 108 -315 163 -126 191 -137 236 -92 20 20 24 34 22 62 -3 34 -12
44 -105 116 l-103 80 0 138 0 139 163 0 c136 0 168 3 197 18 67 34 557 391
576 419 22 34 31 146 15 195 -17 52 -61 88 -148 118 l-78 28 -5 213 c-6 238
-9 252 -72 298 -22 16 -35 32 -29 35 22 14 285 76 391 93 87 13 173 18 350 18
264 -1 374 -13 596 -70 127 -33 320 -98 338 -115 4 -5 -3 -43 -18 -87 -34
-101 -33 -143 3 -219 l29 -62 -25 -37 c-13 -20 -47 -73 -74 -117 l-49 -81 -1
-96 0 -96 -101 -75 c-127 -94 -138 -113 -138 -238 0 -107 18 -155 72 -194 32
-23 38 -23 338 -28 l305 -5 144 -72 c169 -86 185 -88 290 -38 61 30 83 35 142
35 l69 0 0 -63 0 -63 -61 -59 c-74 -74 -99 -119 -99 -183 l0 -48 -147 -29
c-216 -41 -208 -38 -296 -124 -117 -113 -117 -112 -117 -350 0 -114 4 -211 10
-227 6 -15 78 -112 160 -214 l150 -188 0 -223 c0 -193 2 -229 18 -259 12 -24
65 -71 174 -154 l158 -119 -43 -51 c-69 -82 -226 -236 -317 -309 -341 -274
-730 -445 -1170 -514 -162 -25 -520 -25 -680 0 -620 97 -1149 400 -1532 878
-266 332 -432 710 -505 1154 -28 169 -25 543 6 724 30 177 80 356 143 514 l51
128 49 -48 48 -47 0 -181 c0 -151 3 -186 18 -215 11 -24 76 -82 199 -180 176
-141 182 -146 182 -182 1 -35 -2 -39 -46 -62 -55 -28 -87 -59 -102 -99 -14
-37 -14 -377 0 -414 6 -15 20 -39 32 -52 12 -13 151 -88 310 -167 l287 -144 0
-264 0 -264 77 -153 78 -154 5 -186 5 -186 29 -37 c39 -51 79 -66 178 -66 91
0 154 22 182 65 9 13 47 103 86 199 68 171 73 179 189 336 130 173 129 172
140 324 l6 94 215 178 c139 116 221 191 233 214 15 31 17 59 15 222 -3 207 -6
217 -78 265 -31 22 -43 23 -216 23 -159 0 -184 2 -184 15 0 27 -47 65 -80 65
-42 0 -80 -39 -80 -82 0 -52 39 -110 90 -135 41 -21 58 -23 217 -23 l173 0 0
-140 0 -139 -182 -152 c-222 -184 -257 -217 -270 -249 -6 -14 -14 -76 -19
-139 l-9 -114 -115 -153 c-113 -151 -117 -158 -187 -334 l-72 -180 -53 0 -53
0 0 169 0 169 -80 161 -80 162 0 259 c0 268 -4 296 -43 339 -12 13 -151 88
-310 167 l-287 144 0 150 0 150 49 24 c59 30 98 75 107 122 10 56 0 158 -19
188 -10 14 -98 90 -197 169 l-179 142 -1 180 c-1 214 -5 228 -104 325 -36 35
-66 69 -66 75 0 6 38 70 85 141 46 71 85 139 85 151 0 35 -42 76 -78 76 -39 0
-58 -16 -120 -107 -216 -312 -356 -676 -419 -1086 -21 -142 -25 -528 -5 -665
42 -295 120 -553 242 -800 128 -262 264 -456 464 -662 208 -216 419 -371 691
-508 250 -127 504 -207 790 -251 150 -23 531 -26 675 -6 358 51 694 168 998
349 327 194 660 526 865 859 449 734 499 1651 131 2423 -75 157 -142 271 -233
398 -85 118 -126 139 -176 88 -41 -40 -33 -70 48 -183 229 -322 373 -690 428
-1092 20 -141 17 -489 -4 -630 -38 -251 -109 -483 -213 -700 -62 -128 -175
-323 -195 -335 -5 -3 -72 42 -149 100 l-140 106 0 219 c0 127 -4 230 -10 246
-6 15 -78 112 -160 214 l-150 188 0 169 0 169 63 61 62 61 163 33 c218 43 261
73 270 186 4 56 7 61 72 128 82 86 93 116 89 246 -4 85 -7 99 -31 131 -42 55
-80 68 -200 68 -98 0 -108 -2 -176 -35 l-72 -34 -151 74 -151 75 -289 0 -289
0 0 59 0 59 97 73 c134 102 137 107 143 237 l5 108 62 96 c97 148 100 165 52
269 l-31 67 21 64 c20 61 23 65 53 65 37 0 78 41 78 78 0 40 -40 72 -148 120
-217 96 -458 166 -694 201 -98 14 -474 27 -548 18z"/>
<path d="M4146 5110 c-63 -16 -153 -70 -197 -117 -22 -24 -55 -74 -72 -111
-29 -61 -32 -76 -32 -162 0 -86 3 -101 32 -162 42 -90 100 -150 186 -193 38
-19 76 -35 83 -35 12 0 14 -53 14 -300 l0 -301 25 -24 c32 -33 78 -33 110 0
l25 24 0 301 c0 247 2 300 14 300 7 0 45 16 83 35 86 43 144 103 186 193 29
61 32 76 32 163 0 90 -2 99 -37 171 -68 136 -188 217 -336 224 -42 2 -94 -1
-116 -6z m168 -162 c86 -26 166 -136 166 -228 0 -124 -116 -240 -240 -240 -63
0 -114 23 -165 75 -102 101 -102 229 0 330 70 71 145 90 239 63z"/>
<path d="M786 4950 c-63 -16 -153 -70 -197 -117 -22 -24 -55 -74 -72 -111 -29
-61 -32 -76 -32 -162 0 -86 3 -101 32 -162 42 -90 100 -150 186 -193 38 -19
76 -35 83 -35 12 0 14 -53 14 -300 l0 -301 25 -24 c32 -33 78 -33 110 0 l25
24 0 301 c0 247 2 300 14 300 7 0 45 16 83 35 86 43 144 103 186 193 29 61 32
76 32 163 0 90 -2 99 -37 171 -68 136 -188 217 -336 224 -42 2 -94 -1 -116 -6z
m168 -162 c86 -26 166 -136 166 -228 0 -124 -116 -240 -240 -240 -63 0 -114
23 -165 75 -102 101 -102 229 0 330 70 71 145 90 239 63z"/>
<path d="M1826 3270 c-63 -16 -153 -70 -197 -117 -22 -24 -55 -74 -72 -111
-29 -61 -32 -76 -32 -162 0 -86 3 -101 32 -162 42 -90 100 -150 186 -193 38
-19 76 -35 83 -35 12 0 14 -53 14 -300 l0 -301 25 -24 c32 -33 78 -33 110 0
l25 24 0 301 c0 247 2 300 14 300 7 0 45 16 83 35 86 43 144 103 186 193 29
61 32 76 32 163 0 90 -2 99 -37 171 -68 136 -188 217 -336 224 -42 2 -94 -1
-116 -6z m168 -162 c55 -16 138 -99 154 -154 28 -94 8 -169 -63 -239 -51 -52
-102 -75 -165 -75 -124 0 -240 116 -240 240 0 63 23 114 75 165 70 71 145 90
239 63z"/>
</g>
</svg>
